<mxfile host="drawio-plugin" modified="2023-09-19T20:26:20.216Z" agent="5.0 (X11; Linux x86_64) AppleWebKit/537.36 (KHTML, like Gecko) Chrome/111.0.0.0 Safari/537.36" etag="iPIViUC2njIEbKIexG_n" version="20.5.3" type="embed"><diagram id="23iRSUPoRavnBvh4doch" name="Page-1"><mxGraphModel dx="729" dy="879" grid="1" gridSize="10" guides="1" tooltips="1" connect="1" arrows="1" fold="1" page="1" pageScale="1" pageWidth="827" pageHeight="1169" math="0" shadow="0"><root><mxCell id="0"/><mxCell id="1" parent="0"/><mxCell id="2" value="" style="group" vertex="1" connectable="0" parent="1"><mxGeometry x="70" y="80" width="475" height="410" as="geometry"/></mxCell><mxCell id="3" value="" style="shape=folder;fontStyle=1;spacingTop=10;tabWidth=40;tabHeight=14;tabPosition=left;html=1;" vertex="1" parent="2"><mxGeometry y="30" width="475" height="380" as="geometry"/></mxCell><mxCell id="4" value="FileHandler" style="swimlane;fontStyle=1;align=center;verticalAlign=top;childLayout=stackLayout;horizontal=1;startSize=26;horizontalStack=0;resizeParent=1;resizeParentMax=0;resizeLast=0;collapsible=1;marginBottom=0;" vertex="1" parent="2"><mxGeometry x="60" y="290" width="340" height="86" as="geometry"/></mxCell><mxCell id="5" value="- writeBuffer: [{fileName:str, data:str, rights: str}]" style="text;strokeColor=none;fillColor=none;align=left;verticalAlign=top;spacingLeft=4;spacingRight=4;overflow=hidden;rotatable=0;points=[[0,0.5],[1,0.5]];portConstraint=eastwest;" vertex="1" parent="4"><mxGeometry y="26" width="340" height="26" as="geometry"/></mxCell><mxCell id="6" value="" style="line;strokeWidth=1;fillColor=none;align=left;verticalAlign=middle;spacingTop=-1;spacingLeft=3;spacingRight=3;rotatable=0;labelPosition=right;points=[];portConstraint=eastwest;strokeColor=inherit;" vertex="1" parent="4"><mxGeometry y="52" width="340" height="8" as="geometry"/></mxCell><mxCell id="7" value="- async fileOperation(fileName:str , data: str, rights: str)" style="text;strokeColor=none;fillColor=none;align=left;verticalAlign=top;spacingLeft=4;spacingRight=4;overflow=hidden;rotatable=0;points=[[0,0.5],[1,0.5]];portConstraint=eastwest;" vertex="1" parent="4"><mxGeometry y="60" width="340" height="26" as="geometry"/></mxCell><mxCell id="8" value="FileHandlingInterface" style="swimlane;fontStyle=3;align=center;verticalAlign=top;childLayout=stackLayout;horizontal=1;startSize=26;horizontalStack=0;resizeParent=1;resizeParentMax=0;resizeLast=0;collapsible=1;marginBottom=0;" vertex="1" parent="2"><mxGeometry x="60" y="70" width="340" height="164" as="geometry"/></mxCell><mxCell id="9" value="" style="line;strokeWidth=1;fillColor=none;align=left;verticalAlign=middle;spacingTop=-1;spacingLeft=3;spacingRight=3;rotatable=0;labelPosition=right;points=[];portConstraint=eastwest;strokeColor=inherit;" vertex="1" parent="8"><mxGeometry y="26" width="340" height="8" as="geometry"/></mxCell><mxCell id="10" value="+ createFile(name: str) -&gt; str" style="text;strokeColor=none;fillColor=none;align=left;verticalAlign=top;spacingLeft=4;spacingRight=4;overflow=hidden;rotatable=0;points=[[0,0.5],[1,0.5]];portConstraint=eastwest;" vertex="1" parent="8"><mxGeometry y="34" width="340" height="26" as="geometry"/></mxCell><mxCell id="11" value="+ deleteFile(name: str)" style="text;strokeColor=none;fillColor=none;align=left;verticalAlign=top;spacingLeft=4;spacingRight=4;overflow=hidden;rotatable=0;points=[[0,0.5],[1,0.5]];portConstraint=eastwest;" vertex="1" parent="8"><mxGeometry y="60" width="340" height="26" as="geometry"/></mxCell><mxCell id="12" value="+ read(data: str)" style="text;strokeColor=none;fillColor=none;align=left;verticalAlign=top;spacingLeft=4;spacingRight=4;overflow=hidden;rotatable=0;points=[[0,0.5],[1,0.5]];portConstraint=eastwest;" vertex="1" parent="8"><mxGeometry y="86" width="340" height="26" as="geometry"/></mxCell><mxCell id="13" value="+ write(data: str)" style="text;strokeColor=none;fillColor=none;align=left;verticalAlign=top;spacingLeft=4;spacingRight=4;overflow=hidden;rotatable=0;points=[[0,0.5],[1,0.5]];portConstraint=eastwest;" vertex="1" parent="8"><mxGeometry y="112" width="340" height="26" as="geometry"/></mxCell><mxCell id="14" value="+ append(data: str)" style="text;strokeColor=none;fillColor=none;align=left;verticalAlign=top;spacingLeft=4;spacingRight=4;overflow=hidden;rotatable=0;points=[[0,0.5],[1,0.5]];portConstraint=eastwest;" vertex="1" parent="8"><mxGeometry y="138" width="340" height="26" as="geometry"/></mxCell><mxCell id="15" style="edgeStyle=orthogonalEdgeStyle;rounded=0;orthogonalLoop=1;jettySize=auto;html=1;dashed=1;endArrow=block;endFill=0;" edge="1" parent="2" source="4" target="8"><mxGeometry relative="1" as="geometry"/></mxCell><mxCell id="16" value="" style="html=1;verticalAlign=bottom;labelBackgroundColor=none;endArrow=oval;endFill=0;endSize=12;rounded=0;exitX=0.5;exitY=0;exitDx=0;exitDy=0;" edge="1" parent="2" source="8"><mxGeometry width="160" relative="1" as="geometry"><mxPoint x="345" y="-10" as="sourcePoint"/><mxPoint x="230" as="targetPoint"/></mxGeometry></mxCell></root></mxGraphModel></diagram></mxfile>